HIERARCHY
ROOT Hips
{
	OFFSET 0.00000 0.00000 0.00000
	CHANNELS 6 Xposition Yposition Zposition Zrotation Yrotation Xrotation 
	JOINT LHipJoint
	{
		OFFSET 0 0 0
		CHANNELS 3 Zrotation Yrotation Xrotation
		JOINT LeftUpLeg
		{
			OFFSET 1.36306 -1.79463 0.83929
			CHANNELS 3 Zrotation Yrotation Xrotation
			JOINT LeftLeg
			{
				OFFSET 2.44811 -6.72613 0.00000
				CHANNELS 3 Zrotation Yrotation Xrotation
				JOINT LeftFoot
				{
					OFFSET 2.56220 -7.03959 0.00000
					CHANNELS 3 Zrotation Yrotation Xrotation
					JOINT LeftToeBase
					{
						OFFSET 0.15764 -0.43311 2.32255
						CHANNELS 3 Zrotation Yrotation Xrotation
						End Site
						{
							OFFSET 0.00000 -0.00000 1.18966
						}
					}
				}
			}
		}
	}
	JOINT RHipJoint
	{
		OFFSET 0 0 0
		CHANNELS 3 Zrotation Yrotation Xrotation
		JOINT RightUpLeg
		{
			OFFSET -1.30552 -1.79463 0.83929
			CHANNELS 3 Zrotation Yrotation Xrotation
			JOINT RightLeg
			{
				OFFSET -2.54253 -6.98555 0.00000
				CHANNELS 3 Zrotation Yrotation Xrotation
				JOINT RightFoot
				{
					OFFSET -2.56826 -7.05623 0.00000
					CHANNELS 3 Zrotation Yrotation Xrotation
					JOINT RightToeBase
					{
						OFFSET -0.16473 -0.45259 2.36315
						CHANNELS 3 Zrotation Yrotation Xrotation
						End Site
						{
							OFFSET -0.00000 -0.00000 1.21082
						}
					}
				}
			}
		}
	}
	JOINT LowerBack
	{
		OFFSET 0 0 0
		CHANNELS 3 Zrotation Yrotation Xrotation
		JOINT Spine
		{
			OFFSET 0.02827 2.03559 -0.19338
			CHANNELS 3 Zrotation Yrotation Xrotation
			JOINT Spine1
			{
				OFFSET 0.05672 2.04885 -0.04275
				CHANNELS 3 Zrotation Yrotation Xrotation
				JOINT Neck
				{
					OFFSET 0 0 0
					CHANNELS 3 Zrotation Yrotation Xrotation
					JOINT Neck1
					{
						OFFSET -0.05417 1.74624 0.17202
						CHANNELS 3 Zrotation Yrotation Xrotation
						JOINT Head
						{
							OFFSET 0.10407 1.76136 -0.12397
							CHANNELS 3 Zrotation Yrotation Xrotation
							End Site
							{
								OFFSET 0.03720 1.77044 -0.06241
							}
						}
					}
				}
				JOINT LeftShoulder
				{
					OFFSET 0 0 0
					CHANNELS 3 Zrotation Yrotation Xrotation
					JOINT LeftArm
					{
						OFFSET 3.36241 1.20089 -0.31121
						CHANNELS 3 Zrotation Yrotation Xrotation
						JOINT LeftForeArm
						{
							OFFSET 4.98300 -0.00000 -0.00000
							CHANNELS 3 Zrotation Yrotation Xrotation
							JOINT LeftHand
							{
								OFFSET 3.48356 -0.00000 -0.00000
								CHANNELS 3 Zrotation Yrotation Xrotation
								JOINT LeftFingerBase
								{
									OFFSET 0 0 0
									CHANNELS 3 Zrotation Yrotation Xrotation
									JOINT LeftHandIndex1
									{
										OFFSET 0.71526 -0.00000 -0.00000
										CHANNELS 3 Zrotation Yrotation Xrotation
										End Site
										{
											OFFSET 0.57666 -0.00000 -0.00000
										}
									}
								}
								JOINT LThumb
								{
									OFFSET 0 0 0
									CHANNELS 3 Zrotation Yrotation Xrotation
									End Site
									{
										OFFSET 0.58547 -0.00000 0.58547
									}
								}
							}
						}
					}
				}
				JOINT RightShoulder
				{
					OFFSET 0 0 0
					CHANNELS 3 Zrotation Yrotation Xrotation
					JOINT RightArm
					{
						OFFSET -3.13660 1.37405 -0.40465
						CHANNELS 3 Zrotation Yrotation Xrotation
						JOINT RightForeArm
						{
							OFFSET -5.24190 -0.00000 -0.00000
							CHANNELS 3 Zrotation Yrotation Xrotation
							JOINT RightHand
							{
								OFFSET -3.44417 -0.00000 -0.00000
								CHANNELS 3 Zrotation Yrotation Xrotation
								JOINT RightFingerBase
								{
									OFFSET 0 0 0
									CHANNELS 3 Zrotation Yrotation Xrotation
									JOINT RightHandIndex1
									{
										OFFSET -0.62253 -0.00000 -0.00000
										CHANNELS 3 Zrotation Yrotation Xrotation
										End Site
										{
											OFFSET -0.50190 -0.00000 -0.00000
										}
									}
								}
								JOINT RThumb
								{
									OFFSET 0 0 0
									CHANNELS 3 Zrotation Yrotation Xrotation
									End Site
									{
										OFFSET -0.50956 -0.00000 0.50956
									}
								}
							}
						}
					}
				}
			}
		}
	}
}
MOTION
Frames: 9
Frame Time: .0083333
-10.0141 26.6447 -8.7085 41.4936 87.1122 311.7800 0.0000 0.0000 0.0000 -7.6075 -3.8977 -20.5311 2.1381 9.1479 26.2592 -0.0300 -3.1876 0.2561 0.0025 -0.3249 -0.8927 0.0000 0.0000 0.0000 18.4202 5.3172 -7.9130 -2.2076 -9.2858 26.6935 -0.0606 -10.0091 7.9871 -0.1152 -2.1879 6.0253 0.6674 0.6312 28.0865 -0.9204 2.3729 14.0056 -2.0130 1.9982 0.2644 -1.3990 -9.2093 9.5664 -1.7039 -11.9236 16.0876 -0.3433 -5.8372 3.6191 -0.0000 0.0000 0.0000 -67.7726 -79.0569 35.9614 9.9110 -16.6002 -1.4494 -0.0000 -0.0000 21.3239 -12.4215 -9.5093 2.0840 -7.1250 0.0000 -0.0000 -27.1849 20.4537 18.0965 -0.0000 0.0000 0.0000 60.4450 61.5001 27.6075 -52.7054 54.0300 -28.3495 0.0000 0.0000 8.5752 34.4867 -51.2922 -28.1936 7.1250 -0.0000 -0.0000 89.6654 -59.8719 -54.1399
-10.0147 26.6580 -8.7256 44.2176 87.0023 314.5450 0.0000 0.0000 0.0000 -7.6126 -4.8572 -20.7924 2.0880 9.0470 25.9426 0.0042 -1.5319 -1.4769 0.0032 -0.3673 -1.0093 0.0000 0.0000 0.0000 18.2976 5.3632 -8.1160 -2.1075 -9.0866 26.0665 -0.0107 -9.8368 7.0762 -0.1586 -2.5656 7.0715 1.5997 0.0612 28.0484 -0.9866 1.8088 13.7687 -2.4749 1.7360 0.0180 -5.3758 -8.1216 13.0536 0.1465 -11.1664 11.3937 1.1562 -5.6421 1.8038 -0.0000 0.0000 0.0000 -69.2874 -78.6181 35.4129 9.5438 -16.0228 -1.3463 -0.0000 -0.0000 21.8462 -10.9946 -6.6585 1.2905 -7.1250 0.0000 -0.0000 -26.8628 23.1066 15.9472 -0.0000 0.0000 0.0000 61.1503 61.3553 29.3905 -52.8197 54.0713 -28.4421 0.0000 0.0000 8.5488 32.0360 -52.8825 -26.5177 7.1250 -0.0000 -0.0000 90.7414 -60.9923 -57.1767
-10.0083 26.6454 -8.6800 36.1827 87.3028 306.6270 0.0000 0.0000 0.0000 -7.4850 -5.0073 -21.8457 2.0397 8.9483 25.6339 0.0109 -1.2267 -1.9184 0.0075 -0.5579 -1.5331 0.0000 0.0000 0.0000 18.5462 5.9372 -8.2100 -2.0241 -8.9161 25.5334 0.1091 -10.6261 5.5857 -0.2200 -3.0196 8.3334 0.8081 0.4197 28.2802 -0.9535 2.1173 13.8879 -2.0735 1.8660 0.0381 -4.5963 -8.3231 8.2997 1.1862 -11.1825 18.6832 0.9354 -5.5097 4.6511 0.0000 -0.0000 0.0000 -71.5841 -79.5300 37.3797 9.2962 -15.6313 -1.2788 -0.0000 -0.0000 22.6478 -10.8260 -6.4286 1.2266 -7.1250 0.0000 -0.0000 -26.8023 23.3226 15.7480 0.0000 -0.0000 0.0000 60.8132 61.5256 27.9759 -52.8469 54.0811 -28.4640 0.0000 0.0000 8.7281 30.0358 -53.5482 -24.9416 7.1250 -0.0000 -0.0000 90.6999 -61.7511 -58.2984
-10.0179 26.6741 -8.7207 43.6675 87.0327 314.1200 0.0000 0.0000 0.0000 -7.6064 -5.4096 -22.1558 1.9982 8.8623 25.3656 0.0313 -0.5220 -3.1946 0.0573 -1.5442 -4.2476 0.0000 0.0000 0.0000 18.3047 5.7470 -8.4373 -1.9514 -8.7642 25.0604 0.0780 -9.6531 5.3166 -0.2178 -3.0041 8.2901 1.3888 0.4637 28.1101 -1.4595 2.3075 13.8335 -3.0038 2.0180 0.1095 -5.4722 -9.0662 5.4224 3.1175 -12.4917 24.0153 1.3737 -5.9341 7.0507 0.0000 -0.0000 0.0000 -72.4212 -79.4417 38.9477 9.3185 -15.6665 -1.2848 -0.0000 -0.0000 22.6783 -11.1538 -7.4205 1.4587 -7.1250 0.0000 -0.0000 -26.8064 22.4077 16.4008 0.0000 -0.0000 0.0000 61.4466 61.2244 27.7008 -52.8761 54.0916 -28.4877 0.0000 0.0000 8.9054 29.9221 -53.4115 -24.8027 7.1250 -0.0000 -0.0000 90.4019 -61.7548 -57.9634
-10.0134 26.6713 -8.7124 40.2223 87.1767 310.7510 0.0000 0.0000 0.0000 -7.6379 -4.9372 -23.3500 1.9654 8.7936 25.1519 0.0303 -1.0222 -3.0896 0.1402 -2.4131 -6.6486 0.0000 0.0000 0.0000 18.3455 5.6298 -8.7699 -1.8967 -8.6476 24.6989 0.0888 -9.2960 4.7685 -0.1751 -2.6951 7.4311 1.2866 0.4158 28.2066 -1.2654 2.1987 13.6533 -2.7150 1.9287 -0.1603 -7.4124 -9.2018 5.6940 4.5609 -12.9836 23.8279 2.1161 -6.2431 7.2022 -0.0000 0.0000 0.0000 -72.7764 -79.0082 39.5602 9.3966 -15.7902 -1.3059 -0.0000 -0.0000 22.3471 -10.4268 -6.3166 1.1599 -7.1250 0.0000 -0.0000 -26.5662 23.4413 15.4898 -0.0000 0.0000 0.0000 61.4772 60.9595 28.1177 -52.9905 54.1326 -28.5804 0.0000 0.0000 8.9891 30.2786 -51.8254 -24.6543 7.1250 -0.0000 -0.0000 87.9468 -61.2570 -54.4285
-10.0152 26.6762 -8.7082 38.6513 87.2273 309.3190 0.0000 0.0000 0.0000 -7.6895 -4.7505 -24.4565 1.9428 8.7460 25.0039 0.0343 -0.9747 -3.2957 0.1739 -2.6862 -7.4063 0.0000 0.0000 0.0000 18.3485 5.3875 -9.2111 -1.8373 -8.5186 24.3005 0.0889 -8.7998 4.2937 -0.1206 -2.2390 6.1667 0.7097 0.3328 28.0942 -0.3666 1.9243 13.5120 -1.3317 1.6955 -0.3418 -7.4318 -8.6819 5.9428 1.7735 -11.7097 23.8074 1.3183 -5.8438 6.9130 -0.0000 -0.0000 0.0000 -72.4813 -78.2829 37.3835 9.4902 -15.9382 -1.3315 -0.0000 -0.0000 22.9403 -9.8453 -5.1113 0.8858 -7.1250 0.0000 -0.0000 -26.4414 24.5607 14.6130 -0.0000 -0.0000 0.0000 60.5922 60.9261 29.4747 -53.1674 54.1957 -28.7238 0.0000 0.0000 8.9896 32.9296 -45.6759 -24.8600 7.1250 -0.0000 -0.0000 80.1350 -58.5151 -41.5981
-10.0240 26.6927 -8.7165 40.7950 87.1505 311.5090 0.0000 0.0000 0.0000 -7.8200 -4.6590 -25.2348 1.9187 8.6947 24.8449 0.0465 -0.6669 -3.8925 0.2331 -3.1077 -8.5787 0.0000 0.0000 0.0000 18.3104 5.2585 -9.5058 -1.7878 -8.4094 23.9647 0.0908 -8.3187 3.7687 -0.0763 -1.7816 4.9024 1.2345 0.4109 28.0434 -1.0979 2.1587 13.5504 -2.4886 1.8842 -0.2159 -9.1518 -9.5244 6.0485 5.7909 -13.7074 22.9909 2.7508 -6.6866 7.1305 0.0000 -0.0000 0.0000 -69.6962 -78.2858 37.6478 9.9325 -16.6340 -1.4556 -0.0000 -0.0000 22.5004 -11.2469 -7.6569 1.5177 -7.1250 0.0000 -0.0000 -26.8174 22.1888 16.5642 0.0000 -0.0000 0.0000 61.7039 60.7518 28.7621 -53.2367 54.2203 -28.7800 0.0000 0.0000 9.4955 29.7781 -50.1398 -23.7123 7.1250 -0.0000 -0.0000 84.8672 -60.9271 -50.5548
-10.0251 26.6911 -8.7056 39.2957 87.2291 309.9030 0.0000 0.0000 0.0000 -7.9031 -4.6156 -25.9973 1.8980 8.6503 24.7075 0.0613 -0.5349 -4.5177 0.1877 -2.7900 -7.6946 0.0000 0.0000 0.0000 18.3761 5.4397 -9.4440 -1.7241 -8.2660 23.5249 0.1248 -8.5180 3.0611 -0.0681 -1.6833 4.6313 1.5095 0.4588 28.2890 -1.6235 2.3047 13.5567 -3.2703 2.0071 -0.2735 -0.1580 -9.6183 9.0722 -1.5787 -12.4331 16.1431 -0.5227 -6.0196 3.6495 0.0000 0.0000 0.0000 -68.5141 -78.1712 41.4939 10.5858 -17.6505 -1.6481 -0.0000 -0.0000 17.3350 -10.0847 -4.5768 0.8131 -7.1250 0.0000 -0.0000 -26.7177 25.0352 14.4656 0.0000 0.0000 0.0000 62.8023 60.5660 28.3199 -53.3238 54.2511 -28.8507 0.0000 0.0000 9.9574 29.6506 -50.2430 -23.6350 7.1250 -0.0000 -0.0000 84.9530 -60.9956 -50.7567
-10.0350 26.6945 -8.7063 40.3613 87.2101 310.8810 0.0000 0.0000 0.0000 -7.9098 -5.0647 -26.5083 1.8789 8.6092 24.5803 0.0883 0.1758 -5.6769 0.0697 -1.7030 -4.6857 0.0000 0.0000 0.0000 18.3682 5.3825 -9.4549 -1.6577 -8.1134 23.0592 0.1393 -8.4677 2.5627 -0.0783 -1.8053 4.9678 1.7194 0.4817 28.3705 -1.8943 2.3866 13.5071 -3.7154 2.0721 -0.3371 -2.4109 -9.0548 8.9596 1.4644 -12.1046 17.6807 0.7519 -5.8244 4.6471 0.0000 -0.0000 0.0000 -71.6174 -78.6600 40.0540 9.7548 -16.3551 -1.4051 -0.0000 -0.0000 23.4010 -11.6096 -9.2699 1.8955 -7.1250 0.0000 -0.0000 -26.7252 20.7065 17.5306 0.0000 -0.0000 0.0000 63.3435 60.2855 28.2241 -53.4837 54.3074 -28.9805 0.0000 0.0000 10.1736 30.0514 -51.8696 -24.4698 7.1250 -0.0000 -0.0000 87.8819 -61.3367 -54.4819
